<svg width="520" height="520" viewBox="0 0 520 520" fill="none" xmlns="http://www.w3.org/2000/svg">
<path d="M60.1611 94.3252C77.2857 93.2364 98.0762 98.1522 118.071 105.407C138.098 112.674 157.481 122.344 171.851 130.904C217.101 157.8 255.734 194.5 284.908 238.291L286.29 240.382L286.294 240.388C296.385 255.938 305.354 272.739 310.081 290.949C315.902 313.383 310.182 333.954 298.935 351.851C287.703 369.721 270.923 384.996 254.438 396.979C228.781 415.631 200.482 430.055 169.277 437.846L169.264 437.85L169.251 437.853C166.987 438.374 164.716 438.859 162.439 439.313L162.438 439.314C154.91 440.804 144.554 442.204 134.42 442.119C124.35 442.034 114.215 440.484 107.359 435.826V435.825C103.116 432.966 100.206 428.516 99.29 423.481L99.2891 423.479C98.1181 416.999 100.007 409.444 102.922 402.413C105.855 395.338 109.923 388.573 113.374 383.578C133.257 354.803 164.01 333.305 196.896 322.152V322.151C201.508 320.588 205.774 319.228 210.303 318.124C209.265 317.84 208.236 317.569 207.322 317.309H207.321C166.107 305.552 127.201 284.083 100.343 249.748V249.747C94.8309 242.721 89.6635 235.43 84.8604 227.901V227.9C77.2036 215.984 65.6272 196.18 55.5967 176.003C45.5993 155.893 37.0129 135.174 35.5303 121.528C34.853 115.295 35.5356 108.187 39.8662 102.856C45.0409 96.4864 53.0009 95.0368 60.1074 94.3291L60.1348 94.3262L60.1611 94.3252ZM65.3408 108.677C64.3532 108.679 63.3659 108.716 62.3809 108.786H62.3701L62.3584 108.787C60.3153 108.902 58.1357 109.046 56.1191 109.527C54.105 110.008 52.4047 110.792 51.2188 112.074C50.0541 113.334 49.5553 115.142 49.5088 117.284C49.4625 119.416 49.8692 121.679 50.3135 123.633C52.355 132.613 55.7522 141.341 59.4492 149.876C67.0327 167.097 75.5466 183.893 84.9531 200.188L86.8467 203.441C92.7732 213.546 99.5167 224.383 106.471 233.945L107.864 235.84L107.872 235.851L108.555 236.778C115.644 246.341 123.778 255.084 132.805 262.847L134.357 264.146C167.152 291.273 210.989 306.944 253.172 311.514C254.227 311.628 255.236 311.662 256.574 311.78C257.809 311.89 259.154 312.063 260.406 312.446C261.662 312.83 262.919 313.453 263.887 314.523C264.814 315.549 265.377 316.875 265.521 318.517L265.544 318.849L265.545 318.873V318.897C265.6 321.793 264.674 323.91 262.803 325.205C261.169 326.336 259.046 326.664 256.933 326.695L256.511 326.697C212.973 326.592 169.01 343.913 138.73 375.418V375.419C133.214 381.157 127.257 388.228 122.468 395.869C117.672 403.52 114.106 411.651 113.253 419.53C113.109 421.134 113.726 422.361 114.954 423.4C116.246 424.494 118.186 425.339 120.486 425.963C125.071 427.205 130.511 427.422 133.387 427.464H133.386C142.722 427.559 152.041 426.63 161.176 424.698L161.187 424.696C192.208 418.357 224.336 401.555 249.252 382.833C260.546 374.346 272.869 363.295 282.32 350.666C291.779 338.026 298.269 323.931 298.133 309.317C297.994 294.519 291.332 277.546 282.272 261.381C273.235 245.256 261.913 230.11 252.664 219.006C244.664 209.491 236.205 200.372 227.314 191.683L227.309 191.678C190.996 155.84 139.42 124.042 89.3369 112.073C82.6332 110.471 72.1149 108.655 65.3428 108.677H65.3408Z" fill="#030303" stroke="black" stroke-width="3"/>
<path d="M461.052 62.5928C462.174 62.438 463.774 62.4651 464.764 62.5225C468.833 62.7585 472.108 63.9796 474.678 65.9482C477.239 67.9102 479.015 70.5472 480.207 73.4863C482.574 79.3212 482.713 86.5184 482.05 92.6885C479.477 116.651 472.293 140.549 464.287 163.068C445.045 217.201 417.078 268.503 377.904 310.959L377.905 310.96C366.896 322.909 356.014 332.922 343.848 343.43C344.338 344.155 344.8 344.961 345.124 345.86L345.125 345.861C346.21 348.878 345.977 352.275 345.707 355.126L345.592 356.312C344.711 365.583 342.686 374.439 338.778 382.998C332.253 397.291 320.75 410.956 305.568 416.839L304.843 417.113C302.465 417.988 299.43 418.86 296.356 419.215C293.312 419.567 290.05 419.432 287.353 418.114C285.097 417.012 283.524 415.085 282.742 412.786C281.781 409.96 281.862 406.61 282.293 403.476C282.727 400.313 283.547 397.183 284.198 394.742L284.643 393.13C294.202 359.63 317.167 348.11 340.971 326.979L340.972 326.978C351.245 317.877 360.987 308.198 370.15 297.983C390.997 274.627 408.906 248.802 423.471 221.089C436.511 196.115 447.377 170.064 455.95 143.227L456.693 140.886C460.382 129.193 463.679 117.655 465.843 105.569H465.844C467.293 97.4955 468.642 89.2033 467.63 81.2969L467.566 80.874C467.217 78.8319 466.365 77.8625 465.382 77.3838C464.214 76.8149 462.492 76.7517 460.245 77.2451C448.922 79.7323 438.01 86.5169 428.342 93.2803C414.669 102.845 402.001 114.051 390.121 125.817C363.975 151.707 342.222 180.404 326.114 213.521L326.115 213.522C319.958 226.399 314.89 239.768 310.96 253.49L310.961 253.491C310.747 254.266 310.338 255.914 309.891 257.427C309.663 258.197 309.413 258.978 309.152 259.66C308.907 260.301 308.601 260.988 308.23 261.482C307.086 263.018 305.359 264.012 303.461 264.237L303.462 264.238C303.46 264.239 303.457 264.238 303.455 264.238L303.453 264.239L303.452 264.238C301.508 264.475 299.55 263.92 298.022 262.693L298.021 262.691C296.37 261.362 295.666 259.752 295.527 258.051C295.397 256.453 295.773 254.805 296.13 253.359V253.358C297.118 249.365 298.413 245.414 299.658 241.575L299.66 241.569C311.014 207.047 328.654 174.923 351.691 146.817C358.286 138.682 365.174 130.787 372.339 123.15L372.347 123.142C381.922 113.096 396.888 98.7204 413.011 86.4893C429.059 74.3151 446.522 64.0542 461.052 62.5928ZM331.545 353.753C317.919 364.616 306.558 373.949 300.516 390.757C300.02 392.136 298.748 395.495 297.763 398.81C297.269 400.469 296.864 402.065 296.662 403.36C296.602 403.745 296.565 404.088 296.545 404.387C306.729 401.782 315.481 394.187 321.717 384.527C327.82 375.073 331.395 363.812 331.545 353.753Z" fill="#030303" stroke="black" stroke-width="3"/>
</svg>
